<svg id="Layer_1" data-name="Layer 1" xmlns="http://www.w3.org/2000/svg" viewBox="0 0 400 58.4"><defs><style>.cls-1{fill:#fff;}</style></defs><title>Untitled-2</title><path class="cls-1" d="M19,9.31h0a5.33,5.33,0,0,1,3.77,1.57l15,15.64a1.07,1.07,0,0,0,1.58,0L53.56,11.76a28.9,28.9,0,1,0-3.18,39.31V31a0.53,0.53,0,0,0-.91-0.38L40.19,41.32a2.13,2.13,0,0,1-3.22,0L27.69,30.66a0.53,0.53,0,0,0-.91.38V51.71c-5.79,0-10.48-3.86-10.48-9.65V12A2.69,2.69,0,0,1,19,9.31Z" transform="translate(-2 -0.8)"/><path class="cls-1" d="M91.36,17.87a10.36,10.36,0,0,0-9.58,5.22c-1.62-3.95-5.05-5.34-8.48-5.34-2.73,0-6,1-7.55,3.95l-0.52-3.48H58.67V46.9h7.08V31.57c0-3.77,2.26-7.2,6.1-7.2s5.86,3.43,5.86,7.2V46.9H84.8V31.57c0-3.77,2.38-7.08,6.21-7.08s5.4,3.19,5.4,7V46.9h7.08V31.46C103.49,22.86,99.49,17.87,91.36,17.87Z" transform="translate(-2 -0.8)"/><path class="cls-1" d="M133.16,22.22c-1.63-2.84-5.28-4.64-9.11-4.64-8.36-.06-14.92,5.11-14.92,15,0,10,6.27,15.27,14.75,15.21,3.19-.06,7.66-1.68,9.29-5.05l0.35,4.18h6.68V18.28H133.4Zm-8.48,19c-4.7,0-8.48-3.25-8.48-8.71s3.77-8.65,8.48-8.65C135.83,23.91,135.83,41.27,124.69,41.27Z" transform="translate(-2 -0.8)"/><path class="cls-1" d="M153.25,21.59l-0.52-3.31h-6.56V46.9h7.08V31.8c0-5.28,3.43-7.26,7.14-7.26a7.08,7.08,0,0,1,5.11,1.86l3.19-6.15a10.86,10.86,0,0,0-7.37-2.73C158.42,17.52,155.46,18,153.25,21.59Z" transform="translate(-2 -0.8)"/><polygon class="cls-1" points="194.39 17.88 194.39 17.48 185.91 17.48 176.27 28.97 176.27 5.52 169.19 5.52 169.19 46.1 176.27 46.1 176.27 33.15 187.48 46.1 196.01 46.1 196.01 45.58 182.72 30.95 194.39 17.88"/><path class="cls-1" d="M215.2,17.41c-9.29,0-15.21,6.27-15.21,15,0,9.17,5.86,15.27,15.73,15.27,4.35,0,9.29-1.51,12.31-4.64l-4.53-4.47c-1.63,1.68-5.05,2.67-7.66,2.67-5,0-8.07-2.55-8.53-6.1h22.35C230.76,23.33,224.78,17.41,215.2,17.41Zm-7.78,11.84c1-3.72,4.18-5.57,8-5.57,4.06,0,7,1.86,7.43,5.57H207.42Z" transform="translate(-2 -0.8)"/><path class="cls-1" d="M247.54,40.86c-2.21,0-3.72-1.34-3.72-4.06V24.43h8v-6.1h-7.9V10.21L236.8,11v7.37h-5.34v6.1h5.34V36.8c0,7.14,4.06,10.68,10.27,10.45A15.82,15.82,0,0,0,252.94,46l-2-6A8.1,8.1,0,0,1,247.54,40.86Z" transform="translate(-2 -0.8)"/><path class="cls-1" d="M387.39,16.93h-0.07a14.83,14.83,0,0,0-15,15.22c0,9.37,6.7,15.17,15,15.17,4.73,0,9.86-1.91,12.72-5.69L398,40c-2.23,2.92-6.75,4.47-10.64,4.47-6.08,0-11.39-4-12-10.92h26.56C403,22,395.65,17,387.39,16.93ZM375.32,31c0.65-7.22,5.91-11.35,12-11.35,7.11,0,11.9,4.06,12,11.35H375.32Z" transform="translate(-2 -0.8)"/><path class="cls-1" d="M356.1,19.85a12.52,12.52,0,0,1,8.83,3.52l1.91-1.85A15.34,15.34,0,0,0,356.1,17.1c-8.55,0-15.17,5.74-15.17,15.06s6.86,15,15.17,15a15,15,0,0,0,10.74-4.41l-2-2a12.54,12.54,0,0,1-8.77,3.63c-6.7,0-12.31-4.36-12.31-12.29S349.4,19.85,356.1,19.85Z" transform="translate(-2 -0.8)"/><path class="cls-1" d="M331.13,23.85a13.34,13.34,0,0,0-12-6.81,14.67,14.67,0,0,0-15,15.11,14.76,14.76,0,0,0,15,15.22,13.77,13.77,0,0,0,12-6.75v6.27h2.94V17.4h-2.94v6.45Zm-12,20.67c-6.7,0-12.06-5-12.06-12.36s5.37-12.31,12.06-12.31C335.5,19.85,335.5,44.52,319.08,44.52Z" transform="translate(-2 -0.8)"/><rect class="cls-1" x="292.6" y="9.41" width="2.92" height="36.68"/><path class="cls-1" d="M273.09,17a14.06,14.06,0,0,0-12.77,7.41v-7h-2.86V59.2h2.81V40.08a13.31,13.31,0,0,0,12.18,7.35c8.3,0,15-5.37,15-15.28C287.44,22.65,281.1,17.28,273.09,17Zm-0.65,27.64c-6.73,0-11.93-5.2-11.93-12.42s5.07-12.42,11.93-12.42c6.7,0,12.06,4.06,12.06,12.36S279.13,44.63,272.44,44.63Z" transform="translate(-2 -0.8)"/></svg>